<svg width="193" height="71" viewBox="0 0 193 71" fill="none" xmlns="http://www.w3.org/2000/svg">
<rect width="193" height="71" rx="10" fill="#0C5A25"/>
<rect width="193" height="71" rx="10" fill="url(#paint0_linear_35_227)" fill-opacity="0.2"/>
<path d="M56.9176 32.6562H53.1847C53.1165 32.1733 52.9773 31.7443 52.767 31.3693C52.5568 30.9886 52.2869 30.6648 51.9574 30.3977C51.6278 30.1307 51.2472 29.9261 50.8153 29.7841C50.3892 29.642 49.9261 29.571 49.4261 29.571C48.5227 29.571 47.7358 29.7955 47.0653 30.2443C46.3949 30.6875 45.875 31.3352 45.5057 32.1875C45.1364 33.0341 44.9517 34.0625 44.9517 35.2727C44.9517 36.517 45.1364 37.5625 45.5057 38.4091C45.8807 39.2557 46.4034 39.8949 47.0739 40.3267C47.7443 40.7585 48.5199 40.9744 49.4006 40.9744C49.8949 40.9744 50.3523 40.9091 50.7727 40.7784C51.1989 40.6477 51.5767 40.4574 51.9062 40.2074C52.2358 39.9517 52.5085 39.642 52.7244 39.2784C52.946 38.9148 53.0994 38.5 53.1847 38.0341L56.9176 38.0511C56.821 38.8523 56.5795 39.625 56.1932 40.3693C55.8125 41.108 55.2983 41.7699 54.6506 42.3551C54.0085 42.9347 53.2415 43.3949 52.3494 43.7358C51.4631 44.071 50.4602 44.2386 49.3409 44.2386C47.7841 44.2386 46.392 43.8864 45.1648 43.1818C43.9432 42.4773 42.9773 41.4574 42.267 40.1222C41.5625 38.7869 41.2102 37.1705 41.2102 35.2727C41.2102 33.3693 41.5682 31.75 42.2841 30.4148C43 29.0795 43.9716 28.0625 45.1989 27.3636C46.4261 26.6591 47.8068 26.3068 49.3409 26.3068C50.3523 26.3068 51.2898 26.4489 52.1534 26.733C53.0227 27.017 53.7926 27.4318 54.4631 27.9773C55.1335 28.517 55.679 29.179 56.0994 29.9631C56.5256 30.7472 56.7983 31.6449 56.9176 32.6562ZM66.1305 44.2557C64.8066 44.2557 63.6618 43.9744 62.6959 43.4119C61.7356 42.8437 60.9941 42.054 60.4714 41.0426C59.9487 40.0256 59.6873 38.8466 59.6873 37.5057C59.6873 36.1534 59.9487 34.9716 60.4714 33.9602C60.9941 32.9432 61.7356 32.1534 62.6959 31.5909C63.6618 31.0227 64.8066 30.7386 66.1305 30.7386C67.4544 30.7386 68.5964 31.0227 69.5566 31.5909C70.5226 32.1534 71.2669 32.9432 71.7896 33.9602C72.3123 34.9716 72.5737 36.1534 72.5737 37.5057C72.5737 38.8466 72.3123 40.0256 71.7896 41.0426C71.2669 42.054 70.5226 42.8437 69.5566 43.4119C68.5964 43.9744 67.4544 44.2557 66.1305 44.2557ZM66.1476 41.4432C66.7498 41.4432 67.2527 41.2727 67.6561 40.9318C68.0595 40.5852 68.3635 40.1136 68.568 39.517C68.7782 38.9205 68.8834 38.2415 68.8834 37.4801C68.8834 36.7188 68.7782 36.0398 68.568 35.4432C68.3635 34.8466 68.0595 34.375 67.6561 34.0284C67.2527 33.6818 66.7498 33.5085 66.1476 33.5085C65.5396 33.5085 65.0282 33.6818 64.6135 34.0284C64.2044 34.375 63.8947 34.8466 63.6845 35.4432C63.4799 36.0398 63.3777 36.7188 63.3777 37.4801C63.3777 38.2415 63.4799 38.9205 63.6845 39.517C63.8947 40.1136 64.2044 40.5852 64.6135 40.9318C65.0282 41.2727 65.5396 41.4432 66.1476 41.4432ZM79.2852 36.4318V44H75.6545V30.9091H79.1147V33.2188H79.2681C79.5579 32.4574 80.0437 31.8551 80.7255 31.4119C81.4073 30.9631 82.234 30.7386 83.2056 30.7386C84.1147 30.7386 84.9073 30.9375 85.5835 31.3352C86.2596 31.733 86.7852 32.3011 87.1602 33.0398C87.5352 33.7727 87.7227 34.6477 87.7227 35.6648V44H84.092V36.3125C84.0977 35.5114 83.8931 34.8864 83.4784 34.4375C83.0636 33.983 82.4926 33.7557 81.7653 33.7557C81.2766 33.7557 80.8448 33.8608 80.4698 34.071C80.1005 34.2812 79.8107 34.5881 79.6005 34.9915C79.396 35.3892 79.2909 35.8693 79.2852 36.4318ZM98.2672 30.9091V33.6364H90.3837V30.9091H98.2672ZM92.1735 27.7727H95.8042V39.9773C95.8042 40.3125 95.8553 40.5739 95.9576 40.7614C96.0599 40.9432 96.2019 41.071 96.3837 41.1449C96.5712 41.2187 96.7871 41.2557 97.0314 41.2557C97.2019 41.2557 97.3724 41.2415 97.5428 41.2131C97.7133 41.179 97.8439 41.1534 97.9349 41.1364L98.5059 43.8381C98.3241 43.8949 98.0684 43.9602 97.7388 44.0341C97.4093 44.1136 97.0087 44.1619 96.5371 44.179C95.6621 44.2131 94.8951 44.0966 94.236 43.8295C93.5826 43.5625 93.0741 43.1477 92.7104 42.5852C92.3468 42.0227 92.1678 41.3125 92.1735 40.4545V27.7727ZM101.352 44V30.9091H104.983V44H101.352ZM103.176 29.2216C102.636 29.2216 102.173 29.0426 101.787 28.6847C101.406 28.321 101.216 27.8864 101.216 27.3807C101.216 26.8807 101.406 26.4517 101.787 26.0938C102.173 25.7301 102.636 25.5483 103.176 25.5483C103.716 25.5483 104.176 25.7301 104.557 26.0938C104.943 26.4517 105.136 26.8807 105.136 27.3807C105.136 27.8864 104.943 28.321 104.557 28.6847C104.176 29.0426 103.716 29.2216 103.176 29.2216ZM112.242 36.4318V44H108.611V30.9091H112.072V33.2188H112.225C112.515 32.4574 113.001 31.8551 113.682 31.4119C114.364 30.9631 115.191 30.7386 116.162 30.7386C117.072 30.7386 117.864 30.9375 118.54 31.3352C119.216 31.733 119.742 32.3011 120.117 33.0398C120.492 33.7727 120.68 34.6477 120.68 35.6648V44H117.049V36.3125C117.055 35.5114 116.85 34.8864 116.435 34.4375C116.02 33.983 115.449 33.7557 114.722 33.7557C114.234 33.7557 113.802 33.8608 113.427 34.071C113.057 34.2812 112.768 34.5881 112.557 34.9915C112.353 35.3892 112.248 35.8693 112.242 36.4318ZM132.656 38.4261V30.9091H136.287V44H132.801V41.6222H132.664C132.369 42.3892 131.878 43.0057 131.19 43.4716C130.508 43.9375 129.676 44.1705 128.693 44.1705C127.818 44.1705 127.048 43.9716 126.383 43.5739C125.718 43.1761 125.199 42.6108 124.824 41.8778C124.454 41.1449 124.267 40.267 124.261 39.2443V30.9091H127.892V38.5966C127.897 39.3693 128.105 39.9801 128.514 40.429C128.923 40.8778 129.471 41.1023 130.159 41.1023C130.596 41.1023 131.005 41.0028 131.386 40.804C131.767 40.5994 132.074 40.2983 132.307 39.9006C132.545 39.5028 132.662 39.0114 132.656 38.4261ZM145.877 44.2557C144.53 44.2557 143.371 43.983 142.399 43.4375C141.433 42.8864 140.689 42.108 140.166 41.1023C139.644 40.0909 139.382 38.8949 139.382 37.5142C139.382 36.1676 139.644 34.9858 140.166 33.9688C140.689 32.9517 141.425 32.1591 142.374 31.5909C143.328 31.0227 144.448 30.7386 145.732 30.7386C146.595 30.7386 147.399 30.8778 148.144 31.1562C148.894 31.429 149.547 31.8409 150.104 32.392C150.666 32.9432 151.104 33.6364 151.416 34.4716C151.729 35.3011 151.885 36.2727 151.885 37.3864V38.3835H140.831V36.1335H148.468C148.468 35.6108 148.354 35.1477 148.127 34.7443C147.899 34.3409 147.584 34.0256 147.181 33.7983C146.783 33.5653 146.32 33.4489 145.791 33.4489C145.24 33.4489 144.752 33.5767 144.326 33.8324C143.905 34.0824 143.576 34.4205 143.337 34.8466C143.098 35.267 142.976 35.7358 142.97 36.2528V38.392C142.97 39.0398 143.09 39.5994 143.328 40.071C143.573 40.5426 143.916 40.9062 144.36 41.1619C144.803 41.4176 145.328 41.5455 145.936 41.5455C146.34 41.5455 146.709 41.4886 147.044 41.375C147.379 41.2614 147.666 41.0909 147.905 40.8636C148.144 40.6364 148.326 40.358 148.451 40.0284L151.808 40.25C151.638 41.0568 151.289 41.7614 150.76 42.3636C150.237 42.9602 149.561 43.4261 148.732 43.7614C147.908 44.0909 146.956 44.2557 145.877 44.2557Z" fill="white"/>
<defs>
<linearGradient id="paint0_linear_35_227" x1="96.5" y1="0" x2="96.5" y2="71" gradientUnits="userSpaceOnUse">
<stop stop-color="white"/>
<stop offset="1"/>
</linearGradient>
</defs>
</svg>
