<svg width="123" height="44" viewBox="0 0 123 44" fill="none" xmlns="http://www.w3.org/2000/svg">
<rect x="1.93933" y="1.93927" width="26.9831" height="26.9831" stroke="#0C5A25" stroke-width="2"/>
<rect x="9.99005" y="11.1978" width="26.9831" height="26.9831" stroke="#0C5A25" stroke-width="2"/>
<circle cx="1.34181" cy="1.34181" r="0.84181" fill="black" stroke="#0C5A25"/>
<circle cx="9.39253" cy="10.6003" r="0.84181" fill="black" stroke="#0C5A25"/>
<circle cx="1.47615" cy="29.5198" r="0.84181" fill="black" stroke="#0C5A25"/>
<circle cx="9.39253" cy="38.51" r="0.84181" fill="black" stroke="#0C5A25"/>
<circle cx="37.9732" cy="38.51" r="0.84181" fill="black" stroke="#0C5A25"/>
<circle cx="29.5198" cy="29.5198" r="0.84181" fill="black" stroke="#0C5A25"/>
<circle cx="29.5198" cy="1.34181" r="0.84181" fill="black" stroke="#0C5A25"/>
<circle cx="37.0341" cy="11.0028" r="0.84181" fill="black" stroke="#0C5A25"/>
<line x1="1.74554" y1="2.33354" x2="9.66221" y2="11.1895" stroke="#0C5A25" stroke-width="2"/>
<line x1="1.50782" y1="0.818432" x2="38.005" y2="10.4795" stroke="#0C5A25" stroke-width="0.25"/>
<line x1="1.50782" y1="29.399" x2="38.005" y2="39.06" stroke="#0C5A25" stroke-width="0.25"/>
<line x1="30.1058" y1="1.85928" x2="9.44192" y2="10.7152" stroke="#0C5A25" stroke-width="0.25"/>
<line x1="30.1058" y1="30.0373" x2="9.44192" y2="38.8932" stroke="#0C5A25" stroke-width="0.25"/>
<line x1="28.7796" y1="1.37377" x2="36.6963" y2="11.2297" stroke="#0C5A25" stroke-width="2"/>
<line x1="1.74554" y1="29.3335" x2="9.66221" y2="38.1895" stroke="#0C5A25" stroke-width="2"/>
<line x1="29.2038" y1="29.2141" x2="37.7298" y2="38.3164" stroke="#0C5A25" stroke-width="2"/>
<line x1="1.49361" y1="29.6088" x2="8.87356" y2="10.5551" stroke="#0C5A25" stroke-width="0.25"/>
<line x1="9.40455" y1="38.4021" x2="1.48788" y2="1.77074" stroke="#0C5A25" stroke-width="0.25"/>
<line x1="30.0445" y1="1.71855" x2="38.0954" y2="39.8259" stroke="#0C5A25" stroke-width="0.25"/>
<line x1="29.8054" y1="29.6095" x2="36.917" y2="10.9583" stroke="#0C5A25" stroke-width="0.25"/>
<path d="M46.715 36V11.25H52.505C54.905 11.25 56.775 11.785 58.115 12.855C59.455 13.915 60.125 15.46 60.125 17.49C60.125 20.17 58.975 22.02 56.675 23.04C58.485 23.3 59.875 23.97 60.845 25.05C61.825 26.12 62.315 27.53 62.315 29.28C62.315 30.68 62 31.885 61.37 32.895C60.74 33.895 59.84 34.665 58.67 35.205C57.5 35.735 56.105 36 54.485 36H46.715ZM49.76 22.05H51.89C53.6 22.05 54.91 21.69 55.82 20.97C56.74 20.24 57.2 19.195 57.2 17.835C57.2 16.475 56.745 15.44 55.835 14.73C54.925 14.01 53.61 13.65 51.89 13.65H49.76V22.05ZM49.76 33.57H53.57C55.38 33.57 56.765 33.195 57.725 32.445C58.685 31.685 59.165 30.6 59.165 29.19C59.165 27.77 58.675 26.67 57.695 25.89C56.725 25.1 55.35 24.705 53.57 24.705H49.76V33.57ZM74.0553 36.48C72.6253 36.48 71.3303 36.13 70.1703 35.43C69.0203 34.72 68.1053 33.75 67.4253 32.52C66.7553 31.29 66.4203 29.885 66.4203 28.305C66.4203 26.745 66.7503 25.355 67.4103 24.135C68.0703 22.905 68.9753 21.935 70.1253 21.225C71.2753 20.515 72.5853 20.16 74.0553 20.16C75.3553 20.16 76.5403 20.45 77.6103 21.03C78.6903 21.61 79.5253 22.415 80.1153 23.445V20.64H83.0253V36H80.1153V33.12C79.4453 34.18 78.5853 35.005 77.5353 35.595C76.4853 36.185 75.3253 36.48 74.0553 36.48ZM74.8353 33.975C75.8853 33.975 76.8103 33.735 77.6103 33.255C78.4203 32.765 79.0553 32.095 79.5153 31.245C79.9753 30.395 80.2053 29.42 80.2053 28.32C80.2053 27.22 79.9753 26.245 79.5153 25.395C79.0553 24.545 78.4203 23.88 77.6103 23.4C76.8103 22.91 75.8853 22.665 74.8353 22.665C73.7953 22.665 72.8703 22.91 72.0603 23.4C71.2503 23.88 70.6103 24.545 70.1403 25.395C69.6803 26.245 69.4503 27.22 69.4503 28.32C69.4503 29.41 69.6803 30.385 70.1403 31.245C70.6103 32.095 71.2503 32.765 72.0603 33.255C72.8703 33.735 73.7953 33.975 74.8353 33.975ZM94.0442 36.48C92.7642 36.48 91.6292 36.205 90.6392 35.655C89.6592 35.095 88.8792 34.3 88.2992 33.27L89.6942 31.47C90.2242 32.36 90.8642 33.05 91.6142 33.54C92.3642 34.03 93.1692 34.275 94.0292 34.275C94.5892 34.275 95.0942 34.165 95.5442 33.945C96.0042 33.725 96.3692 33.41 96.6392 33C96.9092 32.58 97.0442 32.085 97.0442 31.515C97.0442 30.965 96.9042 30.535 96.6242 30.225C96.3542 29.905 95.9492 29.625 95.4092 29.385C94.8792 29.145 94.2142 28.87 93.4142 28.56C92.7742 28.3 92.1542 28.005 91.5542 27.675C90.9542 27.345 90.4592 26.93 90.0692 26.43C89.6892 25.92 89.4992 25.275 89.4992 24.495C89.4992 23.655 89.7242 22.91 90.1742 22.26C90.6342 21.61 91.2642 21.1 92.0642 20.73C92.8642 20.36 93.7742 20.175 94.7942 20.175C95.6242 20.175 96.4292 20.34 97.2092 20.67C97.9892 21 98.7292 21.475 99.4292 22.095L98.2592 23.865C97.2192 22.765 96.0692 22.215 94.8092 22.215C94.0492 22.215 93.4342 22.41 92.9642 22.8C92.4942 23.18 92.2592 23.675 92.2592 24.285C92.2592 24.755 92.4292 25.15 92.7692 25.47C93.1092 25.78 93.5442 26.05 94.0742 26.28C94.6042 26.51 95.1542 26.735 95.7242 26.955C96.5842 27.275 97.3342 27.605 97.9742 27.945C98.6242 28.285 99.1292 28.725 99.4892 29.265C99.8492 29.795 100.029 30.51 100.029 31.41C100.029 32.46 99.7792 33.365 99.2792 34.125C98.7892 34.885 98.0942 35.47 97.1942 35.88C96.2942 36.28 95.2442 36.48 94.0442 36.48ZM113.124 36.48C111.514 36.48 110.069 36.125 108.789 35.415C107.509 34.705 106.499 33.74 105.759 32.52C105.019 31.29 104.649 29.905 104.649 28.365C104.649 27.225 104.859 26.16 105.279 25.17C105.699 24.18 106.284 23.31 107.034 22.56C107.784 21.8 108.654 21.21 109.644 20.79C110.634 20.37 111.694 20.16 112.824 20.16C114.424 20.16 115.824 20.49 117.024 21.15C118.234 21.81 119.174 22.73 119.844 23.91C120.524 25.09 120.864 26.46 120.864 28.02C120.864 28.15 120.859 28.255 120.849 28.335C120.839 28.415 120.819 28.52 120.789 28.65H107.589C107.589 29.72 107.829 30.665 108.309 31.485C108.799 32.305 109.469 32.95 110.319 33.42C111.179 33.88 112.164 34.11 113.274 34.11C114.324 34.11 115.264 33.895 116.094 33.465C116.924 33.035 117.644 32.395 118.254 31.545L120.384 32.655C119.654 33.865 118.649 34.805 117.369 35.475C116.099 36.145 114.684 36.48 113.124 36.48ZM107.739 26.505H117.939C117.799 25.715 117.489 25.025 117.009 24.435C116.539 23.835 115.944 23.37 115.224 23.04C114.514 22.7 113.729 22.53 112.869 22.53C111.969 22.53 111.154 22.695 110.424 23.025C109.704 23.345 109.109 23.805 108.639 24.405C108.179 24.995 107.879 25.695 107.739 26.505Z" fill="black"/>
</svg>
